%TF.GenerationSoftware,KiCad,Pcbnew,10.0.6*%
%TF.CreationDate,2026-10-02T20:22:45+05:30*%
%TF.ProjectId,sunny-pad,73756e6e-792d-4706-9164-2e6b69636164,rev?*%
%TF.SameCoordinates,Original*%
%TF.FileFunction,Legend,Top*%
%TF.FilePolarity,Positive*%
%FSLAX46Y46*%
G04 Gerber Fmt 4.6, Leading zero omitted, Abs format (unit mm)*
G04 Created by KiCad (PCBNEW 10.0.6) date 2026-10-02 20:22:45*
%MOMM*%
%LPD*%
G01*
G04 APERTURE LIST*
%ADD10C,0.150000*%
%ADD11C,0.101600*%
%ADD12C,0.120000*%
%ADD13C,0.127000*%
%ADD14C,0.254000*%
%ADD15C,0.025400*%
G04 APERTURE END LIST*
D10*
X158666667Y-95168200D02*
X158809524Y-95215819D01*
X158809524Y-95215819D02*
X159047619Y-95215819D01*
X159047619Y-95215819D02*
X159142857Y-95168200D01*
X159142857Y-95168200D02*
X159190476Y-95120580D01*
X159190476Y-95120580D02*
X159238095Y-95025342D01*
X159238095Y-95025342D02*
X159238095Y-94930104D01*
X159238095Y-94930104D02*
X159190476Y-94834866D01*
X159190476Y-94834866D02*
X159142857Y-94787247D01*
X159142857Y-94787247D02*
X159047619Y-94739628D01*
X159047619Y-94739628D02*
X158857143Y-94692009D01*
X158857143Y-94692009D02*
X158761905Y-94644390D01*
X158761905Y-94644390D02*
X158714286Y-94596771D01*
X158714286Y-94596771D02*
X158666667Y-94501533D01*
X158666667Y-94501533D02*
X158666667Y-94406295D01*
X158666667Y-94406295D02*
X158714286Y-94311057D01*
X158714286Y-94311057D02*
X158761905Y-94263438D01*
X158761905Y-94263438D02*
X158857143Y-94215819D01*
X158857143Y-94215819D02*
X159095238Y-94215819D01*
X159095238Y-94215819D02*
X159238095Y-94263438D01*
X159571429Y-94215819D02*
X159809524Y-95215819D01*
X159809524Y-95215819D02*
X160000000Y-94501533D01*
X160000000Y-94501533D02*
X160190476Y-95215819D01*
X160190476Y-95215819D02*
X160428572Y-94215819D01*
X160952381Y-94644390D02*
X160857143Y-94596771D01*
X160857143Y-94596771D02*
X160809524Y-94549152D01*
X160809524Y-94549152D02*
X160761905Y-94453914D01*
X160761905Y-94453914D02*
X160761905Y-94406295D01*
X160761905Y-94406295D02*
X160809524Y-94311057D01*
X160809524Y-94311057D02*
X160857143Y-94263438D01*
X160857143Y-94263438D02*
X160952381Y-94215819D01*
X160952381Y-94215819D02*
X161142857Y-94215819D01*
X161142857Y-94215819D02*
X161238095Y-94263438D01*
X161238095Y-94263438D02*
X161285714Y-94311057D01*
X161285714Y-94311057D02*
X161333333Y-94406295D01*
X161333333Y-94406295D02*
X161333333Y-94453914D01*
X161333333Y-94453914D02*
X161285714Y-94549152D01*
X161285714Y-94549152D02*
X161238095Y-94596771D01*
X161238095Y-94596771D02*
X161142857Y-94644390D01*
X161142857Y-94644390D02*
X160952381Y-94644390D01*
X160952381Y-94644390D02*
X160857143Y-94692009D01*
X160857143Y-94692009D02*
X160809524Y-94739628D01*
X160809524Y-94739628D02*
X160761905Y-94834866D01*
X160761905Y-94834866D02*
X160761905Y-95025342D01*
X160761905Y-95025342D02*
X160809524Y-95120580D01*
X160809524Y-95120580D02*
X160857143Y-95168200D01*
X160857143Y-95168200D02*
X160952381Y-95215819D01*
X160952381Y-95215819D02*
X161142857Y-95215819D01*
X161142857Y-95215819D02*
X161238095Y-95168200D01*
X161238095Y-95168200D02*
X161285714Y-95120580D01*
X161285714Y-95120580D02*
X161333333Y-95025342D01*
X161333333Y-95025342D02*
X161333333Y-94834866D01*
X161333333Y-94834866D02*
X161285714Y-94739628D01*
X161285714Y-94739628D02*
X161238095Y-94692009D01*
X161238095Y-94692009D02*
X161142857Y-94644390D01*
X120476667Y-76073200D02*
X120619524Y-76120819D01*
X120619524Y-76120819D02*
X120857619Y-76120819D01*
X120857619Y-76120819D02*
X120952857Y-76073200D01*
X120952857Y-76073200D02*
X121000476Y-76025580D01*
X121000476Y-76025580D02*
X121048095Y-75930342D01*
X121048095Y-75930342D02*
X121048095Y-75835104D01*
X121048095Y-75835104D02*
X121000476Y-75739866D01*
X121000476Y-75739866D02*
X120952857Y-75692247D01*
X120952857Y-75692247D02*
X120857619Y-75644628D01*
X120857619Y-75644628D02*
X120667143Y-75597009D01*
X120667143Y-75597009D02*
X120571905Y-75549390D01*
X120571905Y-75549390D02*
X120524286Y-75501771D01*
X120524286Y-75501771D02*
X120476667Y-75406533D01*
X120476667Y-75406533D02*
X120476667Y-75311295D01*
X120476667Y-75311295D02*
X120524286Y-75216057D01*
X120524286Y-75216057D02*
X120571905Y-75168438D01*
X120571905Y-75168438D02*
X120667143Y-75120819D01*
X120667143Y-75120819D02*
X120905238Y-75120819D01*
X120905238Y-75120819D02*
X121048095Y-75168438D01*
X121381429Y-75120819D02*
X121619524Y-76120819D01*
X121619524Y-76120819D02*
X121810000Y-75406533D01*
X121810000Y-75406533D02*
X122000476Y-76120819D01*
X122000476Y-76120819D02*
X122238572Y-75120819D01*
X123143333Y-76120819D02*
X122571905Y-76120819D01*
X122857619Y-76120819D02*
X122857619Y-75120819D01*
X122857619Y-75120819D02*
X122762381Y-75263676D01*
X122762381Y-75263676D02*
X122667143Y-75358914D01*
X122667143Y-75358914D02*
X122571905Y-75406533D01*
X183740476Y-107707200D02*
X183883333Y-107754819D01*
X183883333Y-107754819D02*
X184121428Y-107754819D01*
X184121428Y-107754819D02*
X184216666Y-107707200D01*
X184216666Y-107707200D02*
X184264285Y-107659580D01*
X184264285Y-107659580D02*
X184311904Y-107564342D01*
X184311904Y-107564342D02*
X184311904Y-107469104D01*
X184311904Y-107469104D02*
X184264285Y-107373866D01*
X184264285Y-107373866D02*
X184216666Y-107326247D01*
X184216666Y-107326247D02*
X184121428Y-107278628D01*
X184121428Y-107278628D02*
X183930952Y-107231009D01*
X183930952Y-107231009D02*
X183835714Y-107183390D01*
X183835714Y-107183390D02*
X183788095Y-107135771D01*
X183788095Y-107135771D02*
X183740476Y-107040533D01*
X183740476Y-107040533D02*
X183740476Y-106945295D01*
X183740476Y-106945295D02*
X183788095Y-106850057D01*
X183788095Y-106850057D02*
X183835714Y-106802438D01*
X183835714Y-106802438D02*
X183930952Y-106754819D01*
X183930952Y-106754819D02*
X184169047Y-106754819D01*
X184169047Y-106754819D02*
X184311904Y-106802438D01*
X184645238Y-106754819D02*
X184883333Y-107754819D01*
X184883333Y-107754819D02*
X185073809Y-107040533D01*
X185073809Y-107040533D02*
X185264285Y-107754819D01*
X185264285Y-107754819D02*
X185502381Y-106754819D01*
X186407142Y-107754819D02*
X185835714Y-107754819D01*
X186121428Y-107754819D02*
X186121428Y-106754819D01*
X186121428Y-106754819D02*
X186026190Y-106897676D01*
X186026190Y-106897676D02*
X185930952Y-106992914D01*
X185930952Y-106992914D02*
X185835714Y-107040533D01*
X187026190Y-106754819D02*
X187121428Y-106754819D01*
X187121428Y-106754819D02*
X187216666Y-106802438D01*
X187216666Y-106802438D02*
X187264285Y-106850057D01*
X187264285Y-106850057D02*
X187311904Y-106945295D01*
X187311904Y-106945295D02*
X187359523Y-107135771D01*
X187359523Y-107135771D02*
X187359523Y-107373866D01*
X187359523Y-107373866D02*
X187311904Y-107564342D01*
X187311904Y-107564342D02*
X187264285Y-107659580D01*
X187264285Y-107659580D02*
X187216666Y-107707200D01*
X187216666Y-107707200D02*
X187121428Y-107754819D01*
X187121428Y-107754819D02*
X187026190Y-107754819D01*
X187026190Y-107754819D02*
X186930952Y-107707200D01*
X186930952Y-107707200D02*
X186883333Y-107659580D01*
X186883333Y-107659580D02*
X186835714Y-107564342D01*
X186835714Y-107564342D02*
X186788095Y-107373866D01*
X186788095Y-107373866D02*
X186788095Y-107135771D01*
X186788095Y-107135771D02*
X186835714Y-106945295D01*
X186835714Y-106945295D02*
X186883333Y-106850057D01*
X186883333Y-106850057D02*
X186930952Y-106802438D01*
X186930952Y-106802438D02*
X187026190Y-106754819D01*
X139666667Y-95168200D02*
X139809524Y-95215819D01*
X139809524Y-95215819D02*
X140047619Y-95215819D01*
X140047619Y-95215819D02*
X140142857Y-95168200D01*
X140142857Y-95168200D02*
X140190476Y-95120580D01*
X140190476Y-95120580D02*
X140238095Y-95025342D01*
X140238095Y-95025342D02*
X140238095Y-94930104D01*
X140238095Y-94930104D02*
X140190476Y-94834866D01*
X140190476Y-94834866D02*
X140142857Y-94787247D01*
X140142857Y-94787247D02*
X140047619Y-94739628D01*
X140047619Y-94739628D02*
X139857143Y-94692009D01*
X139857143Y-94692009D02*
X139761905Y-94644390D01*
X139761905Y-94644390D02*
X139714286Y-94596771D01*
X139714286Y-94596771D02*
X139666667Y-94501533D01*
X139666667Y-94501533D02*
X139666667Y-94406295D01*
X139666667Y-94406295D02*
X139714286Y-94311057D01*
X139714286Y-94311057D02*
X139761905Y-94263438D01*
X139761905Y-94263438D02*
X139857143Y-94215819D01*
X139857143Y-94215819D02*
X140095238Y-94215819D01*
X140095238Y-94215819D02*
X140238095Y-94263438D01*
X140571429Y-94215819D02*
X140809524Y-95215819D01*
X140809524Y-95215819D02*
X141000000Y-94501533D01*
X141000000Y-94501533D02*
X141190476Y-95215819D01*
X141190476Y-95215819D02*
X141428572Y-94215819D01*
X142285714Y-94215819D02*
X141809524Y-94215819D01*
X141809524Y-94215819D02*
X141761905Y-94692009D01*
X141761905Y-94692009D02*
X141809524Y-94644390D01*
X141809524Y-94644390D02*
X141904762Y-94596771D01*
X141904762Y-94596771D02*
X142142857Y-94596771D01*
X142142857Y-94596771D02*
X142238095Y-94644390D01*
X142238095Y-94644390D02*
X142285714Y-94692009D01*
X142285714Y-94692009D02*
X142333333Y-94787247D01*
X142333333Y-94787247D02*
X142333333Y-95025342D01*
X142333333Y-95025342D02*
X142285714Y-95120580D01*
X142285714Y-95120580D02*
X142238095Y-95168200D01*
X142238095Y-95168200D02*
X142142857Y-95215819D01*
X142142857Y-95215819D02*
X141904762Y-95215819D01*
X141904762Y-95215819D02*
X141809524Y-95168200D01*
X141809524Y-95168200D02*
X141761905Y-95120580D01*
X158586667Y-76113200D02*
X158729524Y-76160819D01*
X158729524Y-76160819D02*
X158967619Y-76160819D01*
X158967619Y-76160819D02*
X159062857Y-76113200D01*
X159062857Y-76113200D02*
X159110476Y-76065580D01*
X159110476Y-76065580D02*
X159158095Y-75970342D01*
X159158095Y-75970342D02*
X159158095Y-75875104D01*
X159158095Y-75875104D02*
X159110476Y-75779866D01*
X159110476Y-75779866D02*
X159062857Y-75732247D01*
X159062857Y-75732247D02*
X158967619Y-75684628D01*
X158967619Y-75684628D02*
X158777143Y-75637009D01*
X158777143Y-75637009D02*
X158681905Y-75589390D01*
X158681905Y-75589390D02*
X158634286Y-75541771D01*
X158634286Y-75541771D02*
X158586667Y-75446533D01*
X158586667Y-75446533D02*
X158586667Y-75351295D01*
X158586667Y-75351295D02*
X158634286Y-75256057D01*
X158634286Y-75256057D02*
X158681905Y-75208438D01*
X158681905Y-75208438D02*
X158777143Y-75160819D01*
X158777143Y-75160819D02*
X159015238Y-75160819D01*
X159015238Y-75160819D02*
X159158095Y-75208438D01*
X159491429Y-75160819D02*
X159729524Y-76160819D01*
X159729524Y-76160819D02*
X159920000Y-75446533D01*
X159920000Y-75446533D02*
X160110476Y-76160819D01*
X160110476Y-76160819D02*
X160348572Y-75160819D01*
X160634286Y-75160819D02*
X161300952Y-75160819D01*
X161300952Y-75160819D02*
X160872381Y-76160819D01*
X120476667Y-95073200D02*
X120619524Y-95120819D01*
X120619524Y-95120819D02*
X120857619Y-95120819D01*
X120857619Y-95120819D02*
X120952857Y-95073200D01*
X120952857Y-95073200D02*
X121000476Y-95025580D01*
X121000476Y-95025580D02*
X121048095Y-94930342D01*
X121048095Y-94930342D02*
X121048095Y-94835104D01*
X121048095Y-94835104D02*
X121000476Y-94739866D01*
X121000476Y-94739866D02*
X120952857Y-94692247D01*
X120952857Y-94692247D02*
X120857619Y-94644628D01*
X120857619Y-94644628D02*
X120667143Y-94597009D01*
X120667143Y-94597009D02*
X120571905Y-94549390D01*
X120571905Y-94549390D02*
X120524286Y-94501771D01*
X120524286Y-94501771D02*
X120476667Y-94406533D01*
X120476667Y-94406533D02*
X120476667Y-94311295D01*
X120476667Y-94311295D02*
X120524286Y-94216057D01*
X120524286Y-94216057D02*
X120571905Y-94168438D01*
X120571905Y-94168438D02*
X120667143Y-94120819D01*
X120667143Y-94120819D02*
X120905238Y-94120819D01*
X120905238Y-94120819D02*
X121048095Y-94168438D01*
X121381429Y-94120819D02*
X121619524Y-95120819D01*
X121619524Y-95120819D02*
X121810000Y-94406533D01*
X121810000Y-94406533D02*
X122000476Y-95120819D01*
X122000476Y-95120819D02*
X122238572Y-94120819D01*
X122571905Y-94216057D02*
X122619524Y-94168438D01*
X122619524Y-94168438D02*
X122714762Y-94120819D01*
X122714762Y-94120819D02*
X122952857Y-94120819D01*
X122952857Y-94120819D02*
X123048095Y-94168438D01*
X123048095Y-94168438D02*
X123095714Y-94216057D01*
X123095714Y-94216057D02*
X123143333Y-94311295D01*
X123143333Y-94311295D02*
X123143333Y-94406533D01*
X123143333Y-94406533D02*
X123095714Y-94549390D01*
X123095714Y-94549390D02*
X122524286Y-95120819D01*
X122524286Y-95120819D02*
X123143333Y-95120819D01*
X139801667Y-76073200D02*
X139944524Y-76120819D01*
X139944524Y-76120819D02*
X140182619Y-76120819D01*
X140182619Y-76120819D02*
X140277857Y-76073200D01*
X140277857Y-76073200D02*
X140325476Y-76025580D01*
X140325476Y-76025580D02*
X140373095Y-75930342D01*
X140373095Y-75930342D02*
X140373095Y-75835104D01*
X140373095Y-75835104D02*
X140325476Y-75739866D01*
X140325476Y-75739866D02*
X140277857Y-75692247D01*
X140277857Y-75692247D02*
X140182619Y-75644628D01*
X140182619Y-75644628D02*
X139992143Y-75597009D01*
X139992143Y-75597009D02*
X139896905Y-75549390D01*
X139896905Y-75549390D02*
X139849286Y-75501771D01*
X139849286Y-75501771D02*
X139801667Y-75406533D01*
X139801667Y-75406533D02*
X139801667Y-75311295D01*
X139801667Y-75311295D02*
X139849286Y-75216057D01*
X139849286Y-75216057D02*
X139896905Y-75168438D01*
X139896905Y-75168438D02*
X139992143Y-75120819D01*
X139992143Y-75120819D02*
X140230238Y-75120819D01*
X140230238Y-75120819D02*
X140373095Y-75168438D01*
X140706429Y-75120819D02*
X140944524Y-76120819D01*
X140944524Y-76120819D02*
X141135000Y-75406533D01*
X141135000Y-75406533D02*
X141325476Y-76120819D01*
X141325476Y-76120819D02*
X141563572Y-75120819D01*
X142373095Y-75454152D02*
X142373095Y-76120819D01*
X142135000Y-75073200D02*
X141896905Y-75787485D01*
X141896905Y-75787485D02*
X142515952Y-75787485D01*
D11*
X187136985Y-84802333D02*
X187856652Y-84802333D01*
X187856652Y-84802333D02*
X187941318Y-84760000D01*
X187941318Y-84760000D02*
X187983652Y-84717666D01*
X187983652Y-84717666D02*
X188025985Y-84633000D01*
X188025985Y-84633000D02*
X188025985Y-84463666D01*
X188025985Y-84463666D02*
X187983652Y-84379000D01*
X187983652Y-84379000D02*
X187941318Y-84336666D01*
X187941318Y-84336666D02*
X187856652Y-84294333D01*
X187856652Y-84294333D02*
X187136985Y-84294333D01*
X188025985Y-83405333D02*
X188025985Y-83913333D01*
X188025985Y-83659333D02*
X187136985Y-83659333D01*
X187136985Y-83659333D02*
X187263985Y-83744000D01*
X187263985Y-83744000D02*
X187348652Y-83828667D01*
X187348652Y-83828667D02*
X187390985Y-83913333D01*
D10*
X190205180Y-82601191D02*
X189205180Y-83267857D01*
X190205180Y-83267857D02*
X189205180Y-82601191D01*
X189205180Y-83648810D02*
X190205180Y-83648810D01*
X189490895Y-84077381D02*
X189490895Y-84553571D01*
X189205180Y-83982143D02*
X190205180Y-84315476D01*
X190205180Y-84315476D02*
X189205180Y-84648809D01*
X190205180Y-85172619D02*
X190205180Y-85363095D01*
X190205180Y-85363095D02*
X190157561Y-85458333D01*
X190157561Y-85458333D02*
X190062323Y-85553571D01*
X190062323Y-85553571D02*
X189871847Y-85601190D01*
X189871847Y-85601190D02*
X189538514Y-85601190D01*
X189538514Y-85601190D02*
X189348038Y-85553571D01*
X189348038Y-85553571D02*
X189252800Y-85458333D01*
X189252800Y-85458333D02*
X189205180Y-85363095D01*
X189205180Y-85363095D02*
X189205180Y-85172619D01*
X189205180Y-85172619D02*
X189252800Y-85077381D01*
X189252800Y-85077381D02*
X189348038Y-84982143D01*
X189348038Y-84982143D02*
X189538514Y-84934524D01*
X189538514Y-84934524D02*
X189871847Y-84934524D01*
X189871847Y-84934524D02*
X190062323Y-84982143D01*
X190062323Y-84982143D02*
X190157561Y-85077381D01*
X190157561Y-85077381D02*
X190205180Y-85172619D01*
X191252800Y-79363095D02*
X191205180Y-79505952D01*
X191205180Y-79505952D02*
X191205180Y-79744047D01*
X191205180Y-79744047D02*
X191252800Y-79839285D01*
X191252800Y-79839285D02*
X191300419Y-79886904D01*
X191300419Y-79886904D02*
X191395657Y-79934523D01*
X191395657Y-79934523D02*
X191490895Y-79934523D01*
X191490895Y-79934523D02*
X191586133Y-79886904D01*
X191586133Y-79886904D02*
X191633752Y-79839285D01*
X191633752Y-79839285D02*
X191681371Y-79744047D01*
X191681371Y-79744047D02*
X191728990Y-79553571D01*
X191728990Y-79553571D02*
X191776609Y-79458333D01*
X191776609Y-79458333D02*
X191824228Y-79410714D01*
X191824228Y-79410714D02*
X191919466Y-79363095D01*
X191919466Y-79363095D02*
X192014704Y-79363095D01*
X192014704Y-79363095D02*
X192109942Y-79410714D01*
X192109942Y-79410714D02*
X192157561Y-79458333D01*
X192157561Y-79458333D02*
X192205180Y-79553571D01*
X192205180Y-79553571D02*
X192205180Y-79791666D01*
X192205180Y-79791666D02*
X192157561Y-79934523D01*
X191252800Y-80744047D02*
X191205180Y-80648809D01*
X191205180Y-80648809D02*
X191205180Y-80458333D01*
X191205180Y-80458333D02*
X191252800Y-80363095D01*
X191252800Y-80363095D02*
X191348038Y-80315476D01*
X191348038Y-80315476D02*
X191728990Y-80315476D01*
X191728990Y-80315476D02*
X191824228Y-80363095D01*
X191824228Y-80363095D02*
X191871847Y-80458333D01*
X191871847Y-80458333D02*
X191871847Y-80648809D01*
X191871847Y-80648809D02*
X191824228Y-80744047D01*
X191824228Y-80744047D02*
X191728990Y-80791666D01*
X191728990Y-80791666D02*
X191633752Y-80791666D01*
X191633752Y-80791666D02*
X191538514Y-80315476D01*
X191252800Y-81601190D02*
X191205180Y-81505952D01*
X191205180Y-81505952D02*
X191205180Y-81315476D01*
X191205180Y-81315476D02*
X191252800Y-81220238D01*
X191252800Y-81220238D02*
X191348038Y-81172619D01*
X191348038Y-81172619D02*
X191728990Y-81172619D01*
X191728990Y-81172619D02*
X191824228Y-81220238D01*
X191824228Y-81220238D02*
X191871847Y-81315476D01*
X191871847Y-81315476D02*
X191871847Y-81505952D01*
X191871847Y-81505952D02*
X191824228Y-81601190D01*
X191824228Y-81601190D02*
X191728990Y-81648809D01*
X191728990Y-81648809D02*
X191633752Y-81648809D01*
X191633752Y-81648809D02*
X191538514Y-81172619D01*
X191252800Y-82458333D02*
X191205180Y-82363095D01*
X191205180Y-82363095D02*
X191205180Y-82172619D01*
X191205180Y-82172619D02*
X191252800Y-82077381D01*
X191252800Y-82077381D02*
X191348038Y-82029762D01*
X191348038Y-82029762D02*
X191728990Y-82029762D01*
X191728990Y-82029762D02*
X191824228Y-82077381D01*
X191824228Y-82077381D02*
X191871847Y-82172619D01*
X191871847Y-82172619D02*
X191871847Y-82363095D01*
X191871847Y-82363095D02*
X191824228Y-82458333D01*
X191824228Y-82458333D02*
X191728990Y-82505952D01*
X191728990Y-82505952D02*
X191633752Y-82505952D01*
X191633752Y-82505952D02*
X191538514Y-82029762D01*
X191205180Y-83363095D02*
X192205180Y-83363095D01*
X191252800Y-83363095D02*
X191205180Y-83267857D01*
X191205180Y-83267857D02*
X191205180Y-83077381D01*
X191205180Y-83077381D02*
X191252800Y-82982143D01*
X191252800Y-82982143D02*
X191300419Y-82934524D01*
X191300419Y-82934524D02*
X191395657Y-82886905D01*
X191395657Y-82886905D02*
X191681371Y-82886905D01*
X191681371Y-82886905D02*
X191776609Y-82934524D01*
X191776609Y-82934524D02*
X191824228Y-82982143D01*
X191824228Y-82982143D02*
X191871847Y-83077381D01*
X191871847Y-83077381D02*
X191871847Y-83267857D01*
X191871847Y-83267857D02*
X191824228Y-83363095D01*
X191252800Y-84553572D02*
X191205180Y-84696429D01*
X191205180Y-84696429D02*
X191205180Y-84934524D01*
X191205180Y-84934524D02*
X191252800Y-85029762D01*
X191252800Y-85029762D02*
X191300419Y-85077381D01*
X191300419Y-85077381D02*
X191395657Y-85125000D01*
X191395657Y-85125000D02*
X191490895Y-85125000D01*
X191490895Y-85125000D02*
X191586133Y-85077381D01*
X191586133Y-85077381D02*
X191633752Y-85029762D01*
X191633752Y-85029762D02*
X191681371Y-84934524D01*
X191681371Y-84934524D02*
X191728990Y-84744048D01*
X191728990Y-84744048D02*
X191776609Y-84648810D01*
X191776609Y-84648810D02*
X191824228Y-84601191D01*
X191824228Y-84601191D02*
X191919466Y-84553572D01*
X191919466Y-84553572D02*
X192014704Y-84553572D01*
X192014704Y-84553572D02*
X192109942Y-84601191D01*
X192109942Y-84601191D02*
X192157561Y-84648810D01*
X192157561Y-84648810D02*
X192205180Y-84744048D01*
X192205180Y-84744048D02*
X192205180Y-84982143D01*
X192205180Y-84982143D02*
X192157561Y-85125000D01*
X191871847Y-85410715D02*
X191871847Y-85791667D01*
X192205180Y-85553572D02*
X191348038Y-85553572D01*
X191348038Y-85553572D02*
X191252800Y-85601191D01*
X191252800Y-85601191D02*
X191205180Y-85696429D01*
X191205180Y-85696429D02*
X191205180Y-85791667D01*
X191871847Y-86553572D02*
X191205180Y-86553572D01*
X191871847Y-86125001D02*
X191348038Y-86125001D01*
X191348038Y-86125001D02*
X191252800Y-86172620D01*
X191252800Y-86172620D02*
X191205180Y-86267858D01*
X191205180Y-86267858D02*
X191205180Y-86410715D01*
X191205180Y-86410715D02*
X191252800Y-86505953D01*
X191252800Y-86505953D02*
X191300419Y-86553572D01*
X191205180Y-87458334D02*
X192205180Y-87458334D01*
X191252800Y-87458334D02*
X191205180Y-87363096D01*
X191205180Y-87363096D02*
X191205180Y-87172620D01*
X191205180Y-87172620D02*
X191252800Y-87077382D01*
X191252800Y-87077382D02*
X191300419Y-87029763D01*
X191300419Y-87029763D02*
X191395657Y-86982144D01*
X191395657Y-86982144D02*
X191681371Y-86982144D01*
X191681371Y-86982144D02*
X191776609Y-87029763D01*
X191776609Y-87029763D02*
X191824228Y-87077382D01*
X191824228Y-87077382D02*
X191871847Y-87172620D01*
X191871847Y-87172620D02*
X191871847Y-87363096D01*
X191871847Y-87363096D02*
X191824228Y-87458334D01*
X191205180Y-87934525D02*
X191871847Y-87934525D01*
X192205180Y-87934525D02*
X192157561Y-87886906D01*
X192157561Y-87886906D02*
X192109942Y-87934525D01*
X192109942Y-87934525D02*
X192157561Y-87982144D01*
X192157561Y-87982144D02*
X192205180Y-87934525D01*
X192205180Y-87934525D02*
X192109942Y-87934525D01*
X191205180Y-88553572D02*
X191252800Y-88458334D01*
X191252800Y-88458334D02*
X191300419Y-88410715D01*
X191300419Y-88410715D02*
X191395657Y-88363096D01*
X191395657Y-88363096D02*
X191681371Y-88363096D01*
X191681371Y-88363096D02*
X191776609Y-88410715D01*
X191776609Y-88410715D02*
X191824228Y-88458334D01*
X191824228Y-88458334D02*
X191871847Y-88553572D01*
X191871847Y-88553572D02*
X191871847Y-88696429D01*
X191871847Y-88696429D02*
X191824228Y-88791667D01*
X191824228Y-88791667D02*
X191776609Y-88839286D01*
X191776609Y-88839286D02*
X191681371Y-88886905D01*
X191681371Y-88886905D02*
X191395657Y-88886905D01*
X191395657Y-88886905D02*
X191300419Y-88839286D01*
X191300419Y-88839286D02*
X191252800Y-88791667D01*
X191252800Y-88791667D02*
X191205180Y-88696429D01*
X191205180Y-88696429D02*
X191205180Y-88553572D01*
X158586667Y-114033200D02*
X158729524Y-114080819D01*
X158729524Y-114080819D02*
X158967619Y-114080819D01*
X158967619Y-114080819D02*
X159062857Y-114033200D01*
X159062857Y-114033200D02*
X159110476Y-113985580D01*
X159110476Y-113985580D02*
X159158095Y-113890342D01*
X159158095Y-113890342D02*
X159158095Y-113795104D01*
X159158095Y-113795104D02*
X159110476Y-113699866D01*
X159110476Y-113699866D02*
X159062857Y-113652247D01*
X159062857Y-113652247D02*
X158967619Y-113604628D01*
X158967619Y-113604628D02*
X158777143Y-113557009D01*
X158777143Y-113557009D02*
X158681905Y-113509390D01*
X158681905Y-113509390D02*
X158634286Y-113461771D01*
X158634286Y-113461771D02*
X158586667Y-113366533D01*
X158586667Y-113366533D02*
X158586667Y-113271295D01*
X158586667Y-113271295D02*
X158634286Y-113176057D01*
X158634286Y-113176057D02*
X158681905Y-113128438D01*
X158681905Y-113128438D02*
X158777143Y-113080819D01*
X158777143Y-113080819D02*
X159015238Y-113080819D01*
X159015238Y-113080819D02*
X159158095Y-113128438D01*
X159491429Y-113080819D02*
X159729524Y-114080819D01*
X159729524Y-114080819D02*
X159920000Y-113366533D01*
X159920000Y-113366533D02*
X160110476Y-114080819D01*
X160110476Y-114080819D02*
X160348572Y-113080819D01*
X160777143Y-114080819D02*
X160967619Y-114080819D01*
X160967619Y-114080819D02*
X161062857Y-114033200D01*
X161062857Y-114033200D02*
X161110476Y-113985580D01*
X161110476Y-113985580D02*
X161205714Y-113842723D01*
X161205714Y-113842723D02*
X161253333Y-113652247D01*
X161253333Y-113652247D02*
X161253333Y-113271295D01*
X161253333Y-113271295D02*
X161205714Y-113176057D01*
X161205714Y-113176057D02*
X161158095Y-113128438D01*
X161158095Y-113128438D02*
X161062857Y-113080819D01*
X161062857Y-113080819D02*
X160872381Y-113080819D01*
X160872381Y-113080819D02*
X160777143Y-113128438D01*
X160777143Y-113128438D02*
X160729524Y-113176057D01*
X160729524Y-113176057D02*
X160681905Y-113271295D01*
X160681905Y-113271295D02*
X160681905Y-113509390D01*
X160681905Y-113509390D02*
X160729524Y-113604628D01*
X160729524Y-113604628D02*
X160777143Y-113652247D01*
X160777143Y-113652247D02*
X160872381Y-113699866D01*
X160872381Y-113699866D02*
X161062857Y-113699866D01*
X161062857Y-113699866D02*
X161158095Y-113652247D01*
X161158095Y-113652247D02*
X161205714Y-113604628D01*
X161205714Y-113604628D02*
X161253333Y-113509390D01*
X139166667Y-114033200D02*
X139309524Y-114080819D01*
X139309524Y-114080819D02*
X139547619Y-114080819D01*
X139547619Y-114080819D02*
X139642857Y-114033200D01*
X139642857Y-114033200D02*
X139690476Y-113985580D01*
X139690476Y-113985580D02*
X139738095Y-113890342D01*
X139738095Y-113890342D02*
X139738095Y-113795104D01*
X139738095Y-113795104D02*
X139690476Y-113699866D01*
X139690476Y-113699866D02*
X139642857Y-113652247D01*
X139642857Y-113652247D02*
X139547619Y-113604628D01*
X139547619Y-113604628D02*
X139357143Y-113557009D01*
X139357143Y-113557009D02*
X139261905Y-113509390D01*
X139261905Y-113509390D02*
X139214286Y-113461771D01*
X139214286Y-113461771D02*
X139166667Y-113366533D01*
X139166667Y-113366533D02*
X139166667Y-113271295D01*
X139166667Y-113271295D02*
X139214286Y-113176057D01*
X139214286Y-113176057D02*
X139261905Y-113128438D01*
X139261905Y-113128438D02*
X139357143Y-113080819D01*
X139357143Y-113080819D02*
X139595238Y-113080819D01*
X139595238Y-113080819D02*
X139738095Y-113128438D01*
X140071429Y-113080819D02*
X140309524Y-114080819D01*
X140309524Y-114080819D02*
X140500000Y-113366533D01*
X140500000Y-113366533D02*
X140690476Y-114080819D01*
X140690476Y-114080819D02*
X140928572Y-113080819D01*
X141738095Y-113080819D02*
X141547619Y-113080819D01*
X141547619Y-113080819D02*
X141452381Y-113128438D01*
X141452381Y-113128438D02*
X141404762Y-113176057D01*
X141404762Y-113176057D02*
X141309524Y-113318914D01*
X141309524Y-113318914D02*
X141261905Y-113509390D01*
X141261905Y-113509390D02*
X141261905Y-113890342D01*
X141261905Y-113890342D02*
X141309524Y-113985580D01*
X141309524Y-113985580D02*
X141357143Y-114033200D01*
X141357143Y-114033200D02*
X141452381Y-114080819D01*
X141452381Y-114080819D02*
X141642857Y-114080819D01*
X141642857Y-114080819D02*
X141738095Y-114033200D01*
X141738095Y-114033200D02*
X141785714Y-113985580D01*
X141785714Y-113985580D02*
X141833333Y-113890342D01*
X141833333Y-113890342D02*
X141833333Y-113652247D01*
X141833333Y-113652247D02*
X141785714Y-113557009D01*
X141785714Y-113557009D02*
X141738095Y-113509390D01*
X141738095Y-113509390D02*
X141642857Y-113461771D01*
X141642857Y-113461771D02*
X141452381Y-113461771D01*
X141452381Y-113461771D02*
X141357143Y-113509390D01*
X141357143Y-113509390D02*
X141309524Y-113557009D01*
X141309524Y-113557009D02*
X141261905Y-113652247D01*
X120246667Y-114033200D02*
X120389524Y-114080819D01*
X120389524Y-114080819D02*
X120627619Y-114080819D01*
X120627619Y-114080819D02*
X120722857Y-114033200D01*
X120722857Y-114033200D02*
X120770476Y-113985580D01*
X120770476Y-113985580D02*
X120818095Y-113890342D01*
X120818095Y-113890342D02*
X120818095Y-113795104D01*
X120818095Y-113795104D02*
X120770476Y-113699866D01*
X120770476Y-113699866D02*
X120722857Y-113652247D01*
X120722857Y-113652247D02*
X120627619Y-113604628D01*
X120627619Y-113604628D02*
X120437143Y-113557009D01*
X120437143Y-113557009D02*
X120341905Y-113509390D01*
X120341905Y-113509390D02*
X120294286Y-113461771D01*
X120294286Y-113461771D02*
X120246667Y-113366533D01*
X120246667Y-113366533D02*
X120246667Y-113271295D01*
X120246667Y-113271295D02*
X120294286Y-113176057D01*
X120294286Y-113176057D02*
X120341905Y-113128438D01*
X120341905Y-113128438D02*
X120437143Y-113080819D01*
X120437143Y-113080819D02*
X120675238Y-113080819D01*
X120675238Y-113080819D02*
X120818095Y-113128438D01*
X121151429Y-113080819D02*
X121389524Y-114080819D01*
X121389524Y-114080819D02*
X121580000Y-113366533D01*
X121580000Y-113366533D02*
X121770476Y-114080819D01*
X121770476Y-114080819D02*
X122008572Y-113080819D01*
X122294286Y-113080819D02*
X122913333Y-113080819D01*
X122913333Y-113080819D02*
X122580000Y-113461771D01*
X122580000Y-113461771D02*
X122722857Y-113461771D01*
X122722857Y-113461771D02*
X122818095Y-113509390D01*
X122818095Y-113509390D02*
X122865714Y-113557009D01*
X122865714Y-113557009D02*
X122913333Y-113652247D01*
X122913333Y-113652247D02*
X122913333Y-113890342D01*
X122913333Y-113890342D02*
X122865714Y-113985580D01*
X122865714Y-113985580D02*
X122818095Y-114033200D01*
X122818095Y-114033200D02*
X122722857Y-114080819D01*
X122722857Y-114080819D02*
X122437143Y-114080819D01*
X122437143Y-114080819D02*
X122341905Y-114033200D01*
X122341905Y-114033200D02*
X122294286Y-113985580D01*
%TO.C,SW8*%
D12*
X153015000Y-95650000D02*
X166985000Y-95650000D01*
X153015000Y-109620000D02*
X153015000Y-95650000D01*
X166985000Y-95650000D02*
X166985000Y-109620000D01*
X166985000Y-109620000D02*
X153015000Y-109620000D01*
%TO.C,SW1*%
X114825000Y-76555000D02*
X128795000Y-76555000D01*
X114825000Y-90525000D02*
X114825000Y-76555000D01*
X128795000Y-76555000D02*
X128795000Y-90525000D01*
X128795000Y-90525000D02*
X114825000Y-90525000D01*
%TO.C,SW10*%
X182450000Y-110400000D02*
X183050000Y-110400000D01*
X182750000Y-110700000D02*
X182450000Y-110400000D01*
X183050000Y-110400000D02*
X182750000Y-110700000D01*
X184150000Y-108600000D02*
X184150000Y-120400000D01*
X188250000Y-108600000D02*
X184150000Y-108600000D01*
X188250000Y-120400000D02*
X184150000Y-120400000D01*
X189750000Y-114500000D02*
X190750000Y-114500000D01*
X190250000Y-114000000D02*
X190250000Y-115000000D01*
X192250000Y-108600000D02*
X196350000Y-108600000D01*
X196350000Y-108600000D02*
X196350000Y-111000000D01*
X196350000Y-113200000D02*
X196350000Y-115800000D01*
X196350000Y-118000000D02*
X196350000Y-120400000D01*
X196350000Y-120400000D02*
X192250000Y-120400000D01*
X193250000Y-114500000D02*
G75*
G02*
X187250000Y-114500000I-3000000J0D01*
G01*
X187250000Y-114500000D02*
G75*
G02*
X193250000Y-114500000I3000000J0D01*
G01*
%TO.C,SW5*%
X134015000Y-95650000D02*
X147985000Y-95650000D01*
X134015000Y-109620000D02*
X134015000Y-95650000D01*
X147985000Y-95650000D02*
X147985000Y-109620000D01*
X147985000Y-109620000D02*
X134015000Y-109620000D01*
%TO.C,SW7*%
X152935000Y-76595000D02*
X166905000Y-76595000D01*
X152935000Y-90565000D02*
X152935000Y-76595000D01*
X166905000Y-76595000D02*
X166905000Y-90565000D01*
X166905000Y-90565000D02*
X152935000Y-90565000D01*
%TO.C,SW2*%
X114825000Y-95555000D02*
X128795000Y-95555000D01*
X114825000Y-109525000D02*
X114825000Y-95555000D01*
X128795000Y-95555000D02*
X128795000Y-109525000D01*
X128795000Y-109525000D02*
X114825000Y-109525000D01*
%TO.C,SW4*%
X134150000Y-76555000D02*
X148120000Y-76555000D01*
X134150000Y-90525000D02*
X134150000Y-76555000D01*
X148120000Y-76555000D02*
X148120000Y-90525000D01*
X148120000Y-90525000D02*
X134150000Y-90525000D01*
%TO.C,U1*%
D13*
X180620000Y-77725000D02*
X180620000Y-91525000D01*
X182620000Y-93525000D02*
X199620000Y-93525000D01*
X195690730Y-80125000D02*
X203044030Y-80125000D01*
X195690730Y-89125000D02*
X195690730Y-80125000D01*
X199620000Y-75725000D02*
X182620000Y-75725000D01*
X201619090Y-91525000D02*
X201619090Y-77725000D01*
X203044030Y-80125000D02*
X203044030Y-89125000D01*
X203044030Y-89125000D02*
X195690730Y-89125000D01*
D12*
X180620000Y-77725000D02*
G75*
G02*
X182620000Y-75725000I2044857J-44857D01*
G01*
X182620000Y-93525000D02*
G75*
G02*
X180620000Y-91525000I0J2000000D01*
G01*
X199620000Y-75725000D02*
G75*
G02*
X201620000Y-77725000I-44612J-2044612D01*
G01*
X201620000Y-91525000D02*
G75*
G02*
X199620000Y-93525000I-2044610J44610D01*
G01*
D14*
X200047000Y-73625000D02*
G75*
G02*
X199793000Y-73625000I-127000J0D01*
G01*
X199793000Y-73625000D02*
G75*
G02*
X200047000Y-73625000I127000J0D01*
G01*
D15*
X199681705Y-75737285D02*
X199730473Y-75740333D01*
X199779494Y-75744397D01*
X199681705Y-75737285D01*
X182598426Y-93514492D02*
X182549150Y-93512713D01*
X182500382Y-93509665D01*
X182451361Y-93505601D01*
X182402593Y-93500268D01*
X182353825Y-93493664D01*
X182305310Y-93486044D01*
X182257050Y-93477153D01*
X182209045Y-93467248D01*
X182598426Y-93514492D01*
%TO.C,SW9*%
D12*
X152935000Y-114515000D02*
X166905000Y-114515000D01*
X152935000Y-128485000D02*
X152935000Y-114515000D01*
X166905000Y-114515000D02*
X166905000Y-128485000D01*
X166905000Y-128485000D02*
X152935000Y-128485000D01*
%TO.C,SW6*%
X133515000Y-114515000D02*
X147485000Y-114515000D01*
X133515000Y-128485000D02*
X133515000Y-114515000D01*
X147485000Y-114515000D02*
X147485000Y-128485000D01*
X147485000Y-128485000D02*
X133515000Y-128485000D01*
%TO.C,SW3*%
X114595000Y-114515000D02*
X128565000Y-114515000D01*
X114595000Y-128485000D02*
X114595000Y-114515000D01*
X128565000Y-114515000D02*
X128565000Y-128485000D01*
X128565000Y-128485000D02*
X114595000Y-128485000D01*
%TD*%
M02*
