%TF.GenerationSoftware,KiCad,Pcbnew,10.0.6*%
%TF.CreationDate,2026-10-02T20:22:45+05:30*%
%TF.ProjectId,sunny-pad,73756e6e-792d-4706-9164-2e6b69636164,rev?*%
%TF.SameCoordinates,Original*%
%TF.FileFunction,Copper,L2,Bot*%
%TF.FilePolarity,Positive*%
%FSLAX46Y46*%
G04 Gerber Fmt 4.6, Leading zero omitted, Abs format (unit mm)*
G04 Created by KiCad (PCBNEW 10.0.6) date 2026-10-02 20:22:45*
%MOMM*%
%LPD*%
G01*
G04 APERTURE LIST*
G04 Aperture macros list*
%AMRoundRect*
0 Rectangle with rounded corners*
0 $1 Rounding radius*
0 $2 $3 $4 $5 $6 $7 $8 $9 X,Y pos of 4 corners*
0 Add a 4 corners polygon primitive as box body*
4,1,4,$2,$3,$4,$5,$6,$7,$8,$9,$2,$3,0*
0 Add four circle primitives for the rounded corners*
1,1,$1+$1,$2,$3*
1,1,$1+$1,$4,$5*
1,1,$1+$1,$6,$7*
1,1,$1+$1,$8,$9*
0 Add four rect primitives between the rounded corners*
20,1,$1+$1,$2,$3,$4,$5,0*
20,1,$1+$1,$4,$5,$6,$7,0*
20,1,$1+$1,$6,$7,$8,$9,0*
20,1,$1+$1,$8,$9,$2,$3,0*%
G04 Aperture macros list end*
%TA.AperFunction,ComponentPad*%
%ADD10C,2.200000*%
%TD*%
%TA.AperFunction,ComponentPad*%
%ADD11R,2.000000X2.000000*%
%TD*%
%TA.AperFunction,ComponentPad*%
%ADD12C,2.000000*%
%TD*%
%TA.AperFunction,ComponentPad*%
%ADD13R,3.200000X2.000000*%
%TD*%
%TA.AperFunction,ComponentPad*%
%ADD14R,1.700000X3.500000*%
%TD*%
%TA.AperFunction,ComponentPad*%
%ADD15O,1.700000X3.600000*%
%TD*%
%TA.AperFunction,ComponentPad*%
%ADD16O,1.700000X3.700000*%
%TD*%
%TA.AperFunction,ComponentPad*%
%ADD17RoundRect,0.250000X0.550000X-0.550000X0.550000X0.550000X-0.550000X0.550000X-0.550000X-0.550000X0*%
%TD*%
%TA.AperFunction,ComponentPad*%
%ADD18C,1.600000*%
%TD*%
%TA.AperFunction,Conductor*%
%ADD19C,0.200000*%
%TD*%
G04 APERTURE END LIST*
D10*
%TO.P,SW8,1,1_1*%
%TO.N,/GP28*%
X162540000Y-97555000D03*
%TO.P,SW8,2,2_2*%
%TO.N,Net-(D6-A)*%
X156190000Y-100095000D03*
%TD*%
%TO.P,SW1,1,1_1*%
%TO.N,/GP26*%
X124350000Y-78460000D03*
%TO.P,SW1,2,2_2*%
%TO.N,Net-(D1-A)*%
X118000000Y-81000000D03*
%TD*%
D11*
%TO.P,SW10,A,A_A*%
%TO.N,/SDA*%
X182750000Y-112000000D03*
D12*
%TO.P,SW10,B,B_B*%
%TO.N,/SCL*%
X182750000Y-117000000D03*
%TO.P,SW10,C,C_C*%
%TO.N,GND*%
X182750000Y-114500000D03*
D13*
%TO.P,SW10,MP,MP_MP*%
%TO.N,unconnected-(SW10-PadMP)*%
X190250000Y-108900000D03*
X190250000Y-120100000D03*
D12*
%TO.P,SW10,S1,S1_S1*%
%TO.N,/GP1*%
X197250000Y-117000000D03*
%TO.P,SW10,S2,S2_S2*%
%TO.N,GND*%
X197250000Y-112000000D03*
%TD*%
D10*
%TO.P,SW5,1,1_1*%
%TO.N,/GP27*%
X143540000Y-97555000D03*
%TO.P,SW5,2,2_2*%
%TO.N,Net-(D5-A)*%
X137190000Y-100095000D03*
%TD*%
%TO.P,SW7,1,1_1*%
%TO.N,/GP28*%
X162460000Y-78500000D03*
%TO.P,SW7,2,2_2*%
%TO.N,Net-(D3-A)*%
X156110000Y-81040000D03*
%TD*%
%TO.P,SW2,1,1_1*%
%TO.N,/GP26*%
X124350000Y-97460000D03*
%TO.P,SW2,2,2_2*%
%TO.N,Net-(D4-A)*%
X118000000Y-100000000D03*
%TD*%
%TO.P,SW4,1,1_1*%
%TO.N,/GP27*%
X143675000Y-78460000D03*
%TO.P,SW4,2,2_2*%
%TO.N,Net-(D2-A)*%
X137325000Y-81000000D03*
%TD*%
D14*
%TO.P,U1,1,PA02_A0_D0_1*%
%TO.N,/GP26*%
X198740000Y-76000000D03*
D15*
%TO.P,U1,2,PA4_A1_D1_2*%
%TO.N,/GP27*%
X196200000Y-76000000D03*
%TO.P,U1,3,PA10_A2_D2_3*%
%TO.N,/GP28*%
X193660000Y-76000000D03*
%TO.P,U1,4,PA11_A3_D3_4*%
%TO.N,/GP29*%
X191120000Y-76000000D03*
%TO.P,U1,5,PA8_A4_D4_SDA_5*%
%TO.N,/SDA*%
X188580000Y-76000000D03*
%TO.P,U1,6,PA9_A5_D5_SCL_6*%
%TO.N,/SCL*%
X186040000Y-76000000D03*
%TO.P,U1,7,PB08_A6_D6_TX_7*%
%TO.N,unconnected-(U1-PB08_A6_D6_TX-Pad7)*%
X183500000Y-76000000D03*
%TO.P,U1,8,PB09_A7_D7_RX_8*%
%TO.N,/GP1*%
X183500000Y-93250000D03*
%TO.P,U1,9,PA7_A8_D8_SCK_9*%
%TO.N,/GP2*%
X186040000Y-93250000D03*
%TO.P,U1,10,PA5_A9_D9_MISO_10*%
%TO.N,/GP4*%
X188580000Y-93250000D03*
D16*
%TO.P,U1,11,PA6_A10_D10_MOSI_11*%
%TO.N,/GP3*%
X191120000Y-93250000D03*
%TO.P,U1,12,3V3_12*%
%TO.N,unconnected-(U1-3V3-Pad12)*%
X193660000Y-93250000D03*
%TO.P,U1,13,GND_13*%
%TO.N,GND*%
X196200000Y-93250000D03*
%TO.P,U1,14,5V_14*%
%TO.N,VCC*%
X198740000Y-93250000D03*
%TD*%
D10*
%TO.P,SW9,1,1_1*%
%TO.N,/GP28*%
X162460000Y-116420000D03*
%TO.P,SW9,2,2_2*%
%TO.N,Net-(D7-A)*%
X156110000Y-118960000D03*
%TD*%
%TO.P,SW6,1,1_1*%
%TO.N,/GP27*%
X143040000Y-116420000D03*
%TO.P,SW6,2,2_2*%
%TO.N,Net-(D8-A)*%
X136690000Y-118960000D03*
%TD*%
%TO.P,SW3,1,1_1*%
%TO.N,/GP26*%
X124120000Y-116420000D03*
%TO.P,SW3,2,2_2*%
%TO.N,Net-(D9-A)*%
X117770000Y-118960000D03*
%TD*%
D17*
%TO.P,D8,1,K_1*%
%TO.N,/GP2*%
X150000000Y-125500000D03*
D18*
%TO.P,D8,2,A_2*%
%TO.N,Net-(D8-A)*%
X150000000Y-117880000D03*
%TD*%
D17*
%TO.P,D1,1,K_1*%
%TO.N,/GP3*%
X131500000Y-87810000D03*
D18*
%TO.P,D1,2,A_2*%
%TO.N,Net-(D1-A)*%
X131500000Y-80190000D03*
%TD*%
D17*
%TO.P,D3,1,K_1*%
%TO.N,/GP3*%
X169500000Y-87500000D03*
D18*
%TO.P,D3,2,A_2*%
%TO.N,Net-(D3-A)*%
X169500000Y-79880000D03*
%TD*%
D17*
%TO.P,D6,1,K_1*%
%TO.N,/GP4*%
X169500000Y-106310000D03*
D18*
%TO.P,D6,2,A_2*%
%TO.N,Net-(D6-A)*%
X169500000Y-98690000D03*
%TD*%
D17*
%TO.P,D2,1,K_1*%
%TO.N,/GP3*%
X150500000Y-87500000D03*
D18*
%TO.P,D2,2,A_2*%
%TO.N,Net-(D2-A)*%
X150500000Y-79880000D03*
%TD*%
D17*
%TO.P,D5,1,K_1*%
%TO.N,/GP4*%
X150500000Y-105620000D03*
D18*
%TO.P,D5,2,A_2*%
%TO.N,Net-(D5-A)*%
X150500000Y-98000000D03*
%TD*%
D17*
%TO.P,D9,1,K_1*%
%TO.N,/GP2*%
X131000000Y-125000000D03*
D18*
%TO.P,D9,2,A_2*%
%TO.N,Net-(D9-A)*%
X131000000Y-117380000D03*
%TD*%
D17*
%TO.P,D7,1,K_1*%
%TO.N,/GP2*%
X170000000Y-124810000D03*
D18*
%TO.P,D7,2,A_2*%
%TO.N,Net-(D7-A)*%
X170000000Y-117190000D03*
%TD*%
D17*
%TO.P,D4,1,K_1*%
%TO.N,/GP4*%
X131000000Y-107000000D03*
D18*
%TO.P,D4,2,A_2*%
%TO.N,Net-(D4-A)*%
X131000000Y-99380000D03*
%TD*%
%TO.N,Net-(D6-A)*%
D19*
X156190000Y-100095000D02*
X168095000Y-100095000D01*
X168095000Y-100095000D02*
X169500000Y-98690000D01*
%TO.N,Net-(D1-A)*%
X118000000Y-81000000D02*
X130690000Y-81000000D01*
X130690000Y-81000000D02*
X131500000Y-80190000D01*
%TO.N,/SDA*%
X194810000Y-83230000D02*
X188580000Y-77000000D01*
X194810000Y-99940000D02*
X194810000Y-83230000D01*
X182750000Y-112000000D02*
X194810000Y-99940000D01*
%TO.N,/SCL*%
X181450000Y-108326346D02*
X189970000Y-99806346D01*
X182750000Y-117000000D02*
X181450000Y-115700000D01*
X181450000Y-115700000D02*
X181450000Y-108326346D01*
X189970000Y-80930000D02*
X186040000Y-77000000D01*
X189970000Y-99806346D02*
X189970000Y-80930000D01*
%TO.N,GND*%
X197250000Y-93300000D02*
X196200000Y-92250000D01*
X185250000Y-112000000D02*
X197250000Y-112000000D01*
X197250000Y-112000000D02*
X197250000Y-93300000D01*
X182750000Y-114500000D02*
X185250000Y-112000000D01*
%TO.N,Net-(D5-A)*%
X148405000Y-100095000D02*
X150500000Y-98000000D01*
X137190000Y-100095000D02*
X148405000Y-100095000D01*
%TO.N,Net-(D3-A)*%
X168340000Y-81040000D02*
X169500000Y-79880000D01*
X156110000Y-81040000D02*
X168340000Y-81040000D01*
%TO.N,Net-(D4-A)*%
X118000000Y-100000000D02*
X130380000Y-100000000D01*
X130380000Y-100000000D02*
X131000000Y-99380000D01*
%TO.N,Net-(D2-A)*%
X137325000Y-81000000D02*
X149380000Y-81000000D01*
X149380000Y-81000000D02*
X150500000Y-79880000D01*
%TO.N,/GP2*%
X178000000Y-103000000D02*
X186040000Y-94960000D01*
X152500000Y-125500000D02*
X153500000Y-126500000D01*
X178000000Y-118500000D02*
X178000000Y-103000000D01*
X169690000Y-124810000D02*
X170000000Y-124810000D01*
X186040000Y-94960000D02*
X186040000Y-92250000D01*
X147000000Y-125000000D02*
X147500000Y-125500000D01*
X147500000Y-125500000D02*
X150000000Y-125500000D01*
X170000000Y-124810000D02*
X171690000Y-124810000D01*
X171690000Y-124810000D02*
X178000000Y-118500000D01*
X150000000Y-125500000D02*
X152500000Y-125500000D01*
X168000000Y-126500000D02*
X169690000Y-124810000D01*
X153500000Y-126500000D02*
X168000000Y-126500000D01*
X131000000Y-125000000D02*
X147000000Y-125000000D01*
%TO.N,/GP4*%
X133880000Y-105620000D02*
X150500000Y-105620000D01*
X187480000Y-91150000D02*
X188580000Y-92250000D01*
X184890000Y-91823654D02*
X185563654Y-91150000D01*
X168810000Y-105620000D02*
X169500000Y-106310000D01*
X173256346Y-106310000D02*
X184890000Y-94676346D01*
X184890000Y-94676346D02*
X184890000Y-91823654D01*
X169500000Y-106310000D02*
X173256346Y-106310000D01*
X132500000Y-107000000D02*
X133880000Y-105620000D01*
X131000000Y-107000000D02*
X132500000Y-107000000D01*
X185563654Y-91150000D02*
X187480000Y-91150000D01*
X150500000Y-105620000D02*
X168810000Y-105620000D01*
%TO.N,/GP3*%
X131500000Y-87810000D02*
X150190000Y-87810000D01*
X150190000Y-87810000D02*
X150500000Y-87500000D01*
X150500000Y-87500000D02*
X169500000Y-87500000D01*
%TO.N,Net-(D7-A)*%
X156110000Y-118960000D02*
X168230000Y-118960000D01*
X168230000Y-118960000D02*
X170000000Y-117190000D01*
%TO.N,Net-(D8-A)*%
X136690000Y-118960000D02*
X146420000Y-118960000D01*
X147500000Y-117880000D02*
X150000000Y-117880000D01*
X146420000Y-118960000D02*
X147500000Y-117880000D01*
%TO.N,Net-(D9-A)*%
X129420000Y-118960000D02*
X131000000Y-117380000D01*
X117770000Y-118960000D02*
X129420000Y-118960000D01*
%TD*%
M02*
